<?xml version="1.0" standalone="no"?>
<!DOCTYPE svg PUBLIC "-//W3C//DTD SVG 20010904//EN"
 "http://www.w3.org/TR/2001/REC-SVG-20010904/DTD/svg10.dtd">
<svg version="1.0" xmlns="http://www.w3.org/2000/svg"
 width="1024.000000pt" height="1024.000000pt" viewBox="0 0 1024.000000 1024.000000"
 preserveAspectRatio="xMidYMid meet">

<g transform="translate(0.000000,1024.000000) scale(0.100000,-0.100000)"
fill="#000000" stroke="none">
<path d="M4715 10049 c-505 -58 -611 -76 -930 -159 -433 -112 -859 -293 -1165
-495 -421 -278 -688 -542 -963 -950 -339 -503 -544 -1003 -907 -2212 -173
-573 -304 -1188 -341 -1593 -16 -170 -16 -648 -1 -790 48 -445 184 -900 378
-1270 211 -400 414 -680 704 -971 207 -208 419 -381 682 -557 180 -121 662
-372 888 -462 258 -104 700 -245 908 -290 142 -31 508 -88 632 -99 570 -50
1315 9 1888 150 545 134 1200 425 1622 722 288 202 498 376 685 568 298 306
497 584 683 954 224 448 335 890 364 1441 30 602 -80 1319 -328 2134 -92 304
-284 900 -350 1087 -219 626 -475 1107 -793 1493 -216 261 -583 559 -916 744
-104 58 -362 176 -525 241 -256 101 -638 202 -962 255 -301 49 -470 62 -828
65 -190 2 -381 -1 -425 -6z m-515 -1198 c510 -52 572 -55 945 -55 365 0 559
13 1070 70 595 66 999 -10 1375 -261 182 -121 300 -241 439 -450 201 -301 351
-713 465 -1275 65 -323 71 -383 71 -725 0 -302 -1 -313 -28 -440 -48 -222
-117 -402 -215 -555 -60 -95 -211 -267 -299 -340 -305 -254 -645 -388 -1208
-479 -384 -61 -794 -82 -1685 -83 -874 -2 -1204 12 -1640 73 -408 56 -655 126
-925 259 -400 197 -677 502 -803 883 -128 384 -133 827 -16 1422 157 797 409
1322 779 1625 327 267 685 376 1200 365 99 -3 313 -18 475 -34z m-2614 -4250
c44 -27 68 -93 61 -170 -4 -54 -21 -102 -116 -328 -64 -154 -135 -448 -152
-628 -13 -132 -8 -357 12 -537 14 -130 9 -148 -40 -148 -28 0 -72 39 -102 90
-26 42 -127 301 -153 393 -48 166 -60 251 -60 432 0 252 45 446 146 635 70
132 167 236 248 269 43 17 122 13 156 -8z m7281 -28 c107 -75 206 -234 272
-433 46 -142 62 -230 68 -385 9 -223 -30 -437 -123 -673 -87 -220 -133 -292
-185 -292 -50 0 -54 16 -41 183 36 454 -19 800 -192 1220 -76 185 -91 246 -77
304 24 95 64 125 158 120 55 -3 70 -8 120 -44z m-6293 -497 c18 -7 42 -25 53
-40 51 -65 37 -145 -78 -430 -44 -109 -95 -254 -114 -321 -65 -237 -102 -545
-91 -745 7 -121 49 -457 66 -525 23 -96 4 -145 -57 -145 -63 0 -141 107 -243
337 -134 300 -190 574 -176 863 15 347 147 685 345 889 107 111 211 152 295
117z m5256 -18 c140 -68 316 -317 399 -565 92 -278 105 -573 39 -882 -47 -221
-212 -603 -301 -695 -47 -50 -91 -61 -121 -30 -29 28 -27 57 11 244 l37 185 0
260 c0 240 -2 272 -27 417 -45 255 -102 444 -201 667 -110 249 -114 359 -13
411 50 25 107 21 177 -12z m-3268 -245 c106 -47 188 -162 188 -262 0 -48 -4
-57 -38 -91 -63 -64 -171 -77 -259 -31 -50 25 -131 107 -172 175 -69 114 -47
203 58 237 46 15 160 1 223 -28z m1485 -39 c65 -32 119 -90 133 -146 10 -36 9
-49 -7 -88 -26 -63 -61 -79 -210 -89 -259 -20 -526 -60 -670 -102 -62 -19
-109 6 -194 103 -58 65 -69 84 -69 114 0 24 8 43 24 59 22 22 32 24 113 23
115 -1 346 39 594 101 107 27 203 50 215 50 11 1 43 -11 71 -25z m-2517 -83
c38 -27 61 -103 54 -176 -3 -35 -40 -162 -90 -310 -122 -364 -174 -637 -174
-917 0 -254 26 -437 92 -633 42 -127 55 -197 44 -239 -5 -22 -12 -26 -41 -26
-65 0 -126 74 -240 293 -88 168 -120 253 -165 435 -54 218 -65 308 -64 527 0
214 11 298 60 469 71 245 203 463 340 556 74 51 133 58 184 21z m3337 -7 c174
-100 352 -436 410 -774 23 -131 22 -438 0 -580 -21 -126 -87 -374 -128 -479
-58 -145 -186 -367 -248 -429 -23 -23 -42 -32 -65 -32 -64 0 -71 39 -31 171
81 270 116 488 117 734 1 254 -58 578 -158 870 -92 266 -104 311 -104 383 0
79 27 137 73 157 39 17 78 11 134 -21z m-799 -418 c68 -43 122 -128 122 -193
0 -27 -11 -55 -35 -93 -43 -66 -55 -106 -55 -185 -1 -33 -9 -80 -18 -105 l-18
-45 -177 -12 c-97 -6 -259 -19 -359 -29 l-182 -18 -38 -34 c-48 -43 -69 -39
-132 26 -93 95 -99 110 -107 235 -3 62 -14 152 -24 202 -18 97 -16 152 9 190
21 31 48 32 100 1 l41 -24 130 19 c139 20 481 75 555 89 72 14 143 5 188 -24z
m-1339 -61 c16 -8 49 -37 74 -65 103 -114 97 -248 -14 -306 -16 -8 -38 -33
-50 -57 -12 -23 -45 -76 -73 -117 -73 -105 -72 -103 -47 -95 15 4 23 1 27 -9
3 -9 46 -48 95 -86 80 -63 90 -75 104 -122 19 -66 20 -187 1 -213 -10 -14 -26
-20 -53 -20 -73 0 -104 36 -164 190 -25 65 -27 68 -34 42 -4 -15 -1 -202 6
-415 19 -517 18 -548 -5 -595 -23 -46 -88 -87 -140 -87 -68 0 -141 51 -169
120 -29 70 -30 129 -2 220 36 119 60 482 39 589 l-6 31 -82 -76 c-128 -119
-281 -204 -367 -204 -47 0 -99 29 -116 66 -9 18 -13 38 -10 46 2 8 34 31 70
52 85 50 239 202 329 325 39 53 103 134 143 181 120 144 175 223 162 236 -2 3
-48 -23 -101 -56 -172 -108 -234 -124 -304 -78 -54 36 -170 183 -178 226 -9
44 14 92 59 126 32 25 40 26 99 20 126 -13 367 37 533 110 87 39 130 44 174
21z m1520 -675 c45 -22 203 -188 226 -236 25 -53 19 -96 -21 -154 -49 -71 -59
-100 -74 -200 -18 -129 -68 -367 -91 -437 -27 -82 -89 -176 -137 -208 -86 -57
-149 -40 -235 66 -54 65 -57 66 -161 49 -33 -5 -154 -17 -270 -25 -267 -20
-268 -20 -306 -61 -50 -55 -81 -49 -157 33 -83 89 -76 50 -108 598 -8 143 -22
297 -31 342 -15 76 -15 85 0 107 30 47 99 44 160 -6 l28 -24 172 27 c183 29
581 98 736 129 130 25 220 25 269 0z"/>
<path d="M3041 8540 c-292 -62 -520 -270 -561 -511 -23 -137 3 -244 78 -311
47 -43 87 -53 177 -45 54 4 81 14 167 61 167 92 299 154 363 171 82 22 281 30
375 16 155 -24 385 -121 560 -236 152 -100 299 -126 411 -73 49 22 62 35 93
88 21 35 49 97 63 139 23 69 25 87 21 191 -6 137 -19 171 -89 234 -69 62 -182
86 -248 51 -101 -52 -128 -224 -58 -367 24 -48 24 -48 3 -42 -45 13 -85 47
-196 161 -229 236 -451 376 -715 450 -74 20 -118 25 -245 28 -85 2 -175 0
-199 -5z"/>
<path d="M6810 8529 c-269 -58 -539 -224 -786 -482 -90 -94 -164 -157 -184
-157 -3 0 7 27 23 59 40 82 49 206 19 273 -57 130 -240 141 -358 22 -53 -52
-77 -126 -76 -230 2 -147 50 -275 140 -372 102 -109 221 -94 479 60 287 172
502 236 748 225 165 -8 269 -47 570 -212 63 -35 79 -39 155 -43 80 -3 88 -2
131 26 74 48 94 100 93 242 0 102 -3 122 -27 180 -40 94 -114 198 -183 253
-69 56 -213 130 -299 153 -99 27 -329 28 -445 3z"/>
<path d="M3433 7739 c-234 -39 -460 -219 -568 -453 -58 -124 -78 -229 -73
-376 4 -106 10 -139 37 -220 75 -224 230 -396 444 -495 148 -69 287 -82 470
-44 232 47 410 160 527 336 84 125 120 255 120 429 0 426 -268 760 -660 823
-76 13 -222 12 -297 0z m346 -165 c140 -37 262 -122 339 -238 84 -125 122
-259 122 -425 0 -334 -220 -568 -586 -621 -117 -17 -238 5 -361 65 -154 76
-259 197 -320 370 -25 72 -28 93 -27 210 0 114 3 140 27 211 33 100 105 213
177 277 165 148 411 207 629 151z"/>
<path d="M3526 7299 c-109 -26 -215 -113 -265 -219 -22 -47 -26 -68 -26 -150
0 -86 3 -102 31 -161 61 -128 144 -189 283 -209 174 -24 327 44 391 173 80
163 53 357 -66 472 -89 87 -224 123 -348 94z"/>
<path d="M6465 7724 c-152 -34 -265 -95 -375 -204 -91 -89 -149 -176 -191
-284 -59 -152 -71 -282 -44 -441 55 -311 262 -529 600 -631 125 -37 301 -39
419 -6 279 80 482 292 557 582 28 110 31 283 5 385 -42 165 -155 340 -279 432
-83 61 -223 128 -322 153 -109 28 -279 35 -370 14z m350 -159 c104 -27 215
-87 290 -156 130 -122 184 -242 192 -429 5 -96 2 -130 -16 -200 -56 -224 -201
-392 -404 -465 -225 -82 -539 2 -728 195 -101 103 -150 236 -150 406 0 323
177 569 465 644 91 24 267 26 351 5z"/>
<path d="M6568 7300 c-156 -28 -291 -162 -313 -311 -14 -97 36 -240 113 -317
24 -24 73 -58 110 -75 61 -29 75 -32 167 -32 121 0 167 18 249 95 80 76 100
128 101 265 0 105 -2 114 -33 178 -69 140 -239 225 -394 197z"/>
<path d="M5624 6440 c-48 -15 -77 -53 -77 -100 0 -23 6 -47 12 -53 7 -7 46
-12 99 -12 76 -1 96 -5 154 -32 137 -64 218 -173 218 -292 0 -81 -11 -124 -49
-182 -41 -66 -74 -78 -227 -83 -207 -8 -282 -29 -386 -108 -47 -36 -97 -52
-199 -63 -85 -9 -186 16 -288 72 -191 105 -167 98 -347 99 -150 0 -165 2 -210
25 -31 15 -60 40 -79 67 -27 39 -30 52 -30 116 0 96 41 182 123 258 87 79 139
102 242 105 93 2 110 12 110 65 0 92 -74 126 -212 97 -91 -20 -158 -61 -239
-147 -87 -92 -132 -170 -159 -278 -42 -165 -15 -272 97 -374 94 -86 113 -92
309 -101 185 -9 191 -10 292 -67 38 -22 91 -47 118 -55 90 -29 226 -50 294
-44 79 7 211 53 299 106 69 41 117 52 296 67 138 11 271 71 330 148 56 73 70
123 70 246 0 114 -1 117 -37 191 -51 102 -138 203 -217 250 -119 72 -235 101
-307 79z"/>
<path d="M2355 6242 c-180 -55 -278 -157 -320 -334 -19 -79 -19 -134 0 -222
33 -156 150 -326 288 -416 120 -79 336 -126 532 -117 128 7 171 19 380 107
168 72 198 94 193 143 l-3 32 -205 1 c-113 0 -218 5 -235 10 l-30 11 40 20
c22 11 92 39 155 63 269 100 528 256 569 343 41 89 55 82 -157 83 -146 1 -200
5 -247 18 -33 10 -163 66 -290 126 -126 60 -257 116 -290 125 -93 26 -305 29
-380 7z"/>
<path d="M7610 6253 c-132 -22 -227 -58 -490 -186 -85 -42 -182 -82 -215 -90
-33 -8 -136 -18 -230 -22 -93 -3 -171 -8 -174 -10 -2 -3 4 -24 15 -46 39 -87
310 -263 531 -345 112 -41 224 -97 215 -106 -15 -15 -233 -21 -324 -9 -122 16
-149 0 -113 -69 21 -41 200 -127 365 -176 171 -51 275 -56 455 -20 184 37 275
82 374 184 83 85 130 157 161 244 104 297 -31 577 -311 643 -59 13 -199 18
-259 8z"/>
<path d="M4102 5329 c-137 -18 -275 -68 -632 -232 -102 -47 -225 -99 -275
-117 -186 -67 -205 -83 -205 -172 0 -39 5 -50 30 -71 55 -47 109 -60 222 -55
57 3 134 14 173 24 101 26 268 115 493 263 109 71 243 154 300 185 137 75 151
84 167 117 29 55 0 70 -134 68 -42 -1 -104 -5 -139 -10z"/>
<path d="M5903 5325 c-43 -18 -51 -50 -22 -81 13 -14 78 -53 144 -87 66 -34
210 -121 320 -194 248 -162 340 -212 480 -259 91 -31 124 -37 190 -37 98 0
181 29 221 76 49 58 20 157 -54 186 -15 5 -88 32 -163 60 -74 28 -216 88 -315
134 -224 106 -390 172 -474 191 -99 21 -288 28 -327 11z"/>
<path d="M4910 5079 c-253 -32 -620 -170 -840 -316 -107 -71 -124 -92 -117
-143 7 -57 31 -90 65 -90 18 0 65 25 132 71 134 91 271 157 440 213 316 105
550 118 860 50 233 -52 447 -138 670 -268 53 -32 106 -56 122 -56 33 0 58 33
65 87 4 32 0 42 -24 65 -64 61 -378 218 -563 283 -289 100 -565 136 -810 104z"/>
<path d="M5700 3038 c-180 -22 -363 -48 -368 -53 -17 -17 9 -173 31 -180 7 -2
113 10 237 28 l225 32 7 45 c3 25 4 66 1 93 -6 54 1 52 -133 35z"/>
<path d="M5875 2271 c-38 -9 -80 -23 -92 -29 -26 -14 -46 -76 -41 -130 l3 -37
65 3 c101 4 204 21 219 37 15 15 20 113 7 153 -6 18 -14 22 -49 21 -23 0 -73
-8 -112 -18z"/>
<path d="M5345 2203 c-49 -6 -109 -14 -132 -18 l-43 -6 0 -99 c0 -54 4 -101 9
-104 13 -9 245 34 256 47 6 7 8 49 5 102 l-5 90 -90 -12z"/>
<path d="M5917 1874 c-153 -24 -149 -22 -165 -88 -11 -45 -12 -63 -3 -83 12
-26 13 -26 94 -20 115 9 156 22 168 55 16 42 29 120 23 137 -7 17 -1 17 -117
-1z"/>
<path d="M5318 1779 c-75 -11 -118 -22 -118 -31 0 -5 0 -43 0 -85 0 -112 -1
-111 122 -83 57 12 109 27 116 33 8 6 12 38 12 93 l0 84 -37 -1 c-21 -1 -64
-5 -95 -10z"/>
</g>
</svg>
